<?xml version="1.0" encoding="utf-8"?>
<!-- Generator: Adobe Illustrator 23.0.6, SVG Export Plug-In . SVG Version: 6.00 Build 0)  -->
<svg version="1.1"
	 id="svg8" inkscape:version="0.92.4 (5da689c313, 2019-01-14)" sodipodi:docname="inkscape-autosave-0-11024-2020_05_11_23_08_29-001.svg" xmlns:cc="http://creativecommons.org/ns#" xmlns:dc="http://purl.org/dc/elements/1.1/" xmlns:inkscape="http://www.inkscape.org/namespaces/inkscape" xmlns:rdf="http://www.w3.org/1999/02/22-rdf-syntax-ns#" xmlns:sodipodi="http://sodipodi.sourceforge.net/DTD/sodipodi-0.dtd" xmlns:svg="http://www.w3.org/2000/svg"
	 xmlns="http://www.w3.org/2000/svg" xmlns:xlink="http://www.w3.org/1999/xlink" x="0px" y="0px" viewBox="0 0 549.2 342.5"
	 style="enable-background:new 0 0 549.2 342.5;" xml:space="preserve">
<style type="text/css">
	.st0{fill:#3A3A42;}
	.st1{fill:#232429;}
	.st2{fill:#333439;}
	.st3{fill:#000004;}
	.st4{fill:#3A3B40;}
	.st5{fill:#0F1014;}
	.st6{fill:#2D3135;}
	.st7{fill:#474A4F;}
	.st8{fill:#18191D;}
	.st9{fill:#292A2F;}
	.st10{opacity:0.2219;fill:#808080;enable-background:new    ;}
	.st11{fill:#C9B2CC;}
	.st12{fill:#4A978E;}
	.st13{fill:#BC8282;}
	.st14{fill:#AFD3F6;}
</style>
<defs>
	
	
		<inkscape:path-effect  apply_no_weight="true" apply_with_weight="true" effect="bspline" helper_size="0" id="path-effect990" is_visible="true" only_selected="false" steps="2" weight="33.333333">
		</inkscape:path-effect>
	
		<inkscape:path-effect  apply_no_weight="true" apply_with_weight="true" effect="bspline" helper_size="0" id="path-effect986" is_visible="true" only_selected="false" steps="2" weight="33.333333">
		</inkscape:path-effect>
	
		<inkscape:path-effect  apply_no_weight="true" apply_with_weight="true" effect="bspline" helper_size="0" id="path-effect867" is_visible="true" only_selected="false" steps="2" weight="33.333333">
		</inkscape:path-effect>
	
		<inkscape:path-effect  apply_no_weight="true" apply_with_weight="true" effect="bspline" helper_size="0" id="path-effect852" is_visible="true" only_selected="false" steps="2" weight="33.333333">
		</inkscape:path-effect>
	
		<inkscape:path-effect  apply_no_weight="true" apply_with_weight="true" effect="bspline" helper_size="0" id="path-effect904" is_visible="true" lpeversion="1" only_selected="false" steps="2" weight="33.333333">
		</inkscape:path-effect>
	
		<inkscape:path-effect  apply_no_weight="true" apply_with_weight="true" effect="bspline" helper_size="0" id="path-effect900" is_visible="true" lpeversion="1" only_selected="false" steps="2" weight="33.333333">
		</inkscape:path-effect>
	
		<inkscape:path-effect  apply_no_weight="true" apply_with_weight="true" effect="bspline" helper_size="0" id="path-effect882" is_visible="true" lpeversion="1" only_selected="false" steps="2" weight="33.333333">
		</inkscape:path-effect>
	
		<inkscape:path-effect  apply_no_weight="true" apply_with_weight="true" effect="bspline" helper_size="0" id="path-effect860" is_visible="true" lpeversion="1" only_selected="false" steps="2" weight="33.333333">
		</inkscape:path-effect>
</defs>
<sodipodi:namedview  bordercolor="#666666" borderopacity="1.0" id="base" inkscape:current-layer="g1133" inkscape:cx="410.02233" inkscape:cy="822.30106" inkscape:document-rotation="0" inkscape:document-units="mm" inkscape:object-paths="false" inkscape:pageopacity="0.0" inkscape:pageshadow="2" inkscape:snap-global="false" inkscape:snap-midpoints="false" inkscape:snap-smooth-nodes="true" inkscape:window-height="1017" inkscape:window-maximized="1" inkscape:window-width="1920" inkscape:window-x="-8" inkscape:window-y="-8" inkscape:zoom="0.57547465" pagecolor="#ffffff" showgrid="false">
	</sodipodi:namedview>
<g id="layer1" inkscape:groupmode="layer" inkscape:label="Ebene 1">
	<g id="g1133" transform="matrix(1.5726823,0,0,1.5726823,1.122933,-0.5224683)">
		<g id="g1162">
			<path id="path918" inkscape:connector-curvature="0" class="st0" d="M72.2,0.3c-2.1,0-4.2,0.1-6.4,0.2C54,1.5,44.5,4.5,44.7,7.3
				v8.8h43l-0.1-12C87.5,1.9,81.2,0.3,72.2,0.3z"/>
			<path id="path923" inkscape:connector-curvature="0" class="st0" d="M275.6,0.3c2.1,0,4.2,0.1,6.4,0.2
				c11.9,0.9,21.3,3.9,21.2,6.7v8.8h-43l0.1-12C260.3,1.9,266.5,0.3,275.6,0.3L275.6,0.3z"/>
			
				<path id="path1032" inkscape:connector-curvature="0" sodipodi:nodetypes="ccscscsssscsccscscsccsccccccccccccccsc" class="st1" d="
				M71.5,7.1c-3.2,0-6.5,0.1-9.7,0.2C58,7.5,54.3,8,50.6,8.7c-3,0.5-9,2-9,2c-3.7,6.6-8.9,12.3-12.5,18.9
				c-6.1,11.2-6.4,14.4-8.8,22.9c-6.9,25-13.7,49.1-17.5,71.9c-3.9,22.7-5.1,46.6-1.1,64s13.6,26.9,27.2,29.2
				c25.4,4.4,37.5-15.7,45.8-34.8s12.3-38.5,15.4-40.9c1.7-1.3,2.8-2.1,21-2.5c12.9-0.3,33.9-0.7,50.6-1.5h24.4
				c16.6,0.8,37.7,1.1,50.6,1.5c18.2,0.5,19.3,1.3,21,2.5c3.2,2.4,7.2,21.8,15.4,40.9c8.2,19.1,20.4,39.2,45.8,34.8
				c13.6-2.4,23.3-11.8,27.2-29.2c3.9-17.4,2.7-41.3-1.1-64c-3.9-22.7-10.6-46.9-17.5-71.9c-2.4-8.5-2.7-11.7-8.8-22.9
				c-3.6-6.6-8.7-12.3-12.5-18.9c0,0-5.9-1.5-9-2c-3.7-0.6-7.4-1.1-11.2-1.3C279.5,7,273,7,266.5,7.4c-2.9,0.2-5.9,0.2-8.8,1.1
				c-2.2,0.7-6.2,3.3-6.2,3.3h-18.7V13h-34.1H149h-34.1v-1.2H96.2c0,0-4-2.6-6.2-3.3c-2.8-0.9-5.8-0.9-8.8-1.1
				C78,7.2,74.7,7.1,71.5,7.1z"/>
			<path id="path1035" inkscape:connector-curvature="0" class="st2" d="M72.6,187.3c-1.2,0.6-2.3,1.2-3.5,1.8
				c-1.7,0.9-3.3,1.7-5,2.5c-1.7,0.8-3.5,1.5-5.3,2c-1.9,0.5-3.8,0.9-5.9,1.1c-2,0.2-4.1,0.4-6.2,0.4c-2.1,0-4.3-0.1-6.4-0.2
				c-2.1-0.1-4.2-0.3-6.3-0.6c-4.1-0.5-7.9-1.1-11.4-1.8c-3.5-0.7-6.6-1.6-9.4-2.5c-1.4-0.5-2.6-1-3.8-1.6c-1.2-0.6-2.3-1.4-3.5-2.3
				c-1.1-1-2.3-2.1-3.4-3.6c-0.7-0.9-1.5-2.2-2.3-3.5c0.4,3.3,0.8,6.4,1.5,9.3c3.9,17.4,13.6,26.9,27.2,29.2
				C52.3,221.6,64.4,204.9,72.6,187.3L72.6,187.3z"/>
			<path id="path1046" inkscape:connector-curvature="0" class="st2" d="M347.8,177C347.8,177,347.8,177,347.8,177
				c-1.3,2.2-2.5,4-3.6,5.4c-1.2,1.5-2.3,2.6-3.4,3.6c-1.1,1-2.3,1.7-3.5,2.3c-1.2,0.6-2.5,1.1-3.8,1.6c-2.7,1-5.9,1.8-9.4,2.5
				s-7.3,1.3-11.4,1.8c-2,0.2-4.1,0.4-6.3,0.6c-2.1,0.1-4.3,0.2-6.4,0.2c-2.1,0-4.2-0.1-6.2-0.4c-2-0.2-4-0.6-5.9-1.1
				c-1.9-0.5-3.6-1.2-5.3-2c-1.7-0.8-3.4-1.6-5-2.5c-0.7-0.4-1.4-0.7-2-1.1c8.2,17.3,20.3,33.5,43.3,29.5
				c13.6-2.4,23.3-11.8,27.2-29.2C346.8,184.8,347.4,180.9,347.8,177L347.8,177z"/>
			
				<ellipse id="path917" transform="matrix(0.1602 -0.9871 0.9871 0.1602 32.7319 268.6625)" class="st3" cx="174.3" cy="115.1" rx="14.8" ry="14.8"/>
			<path id="path919" inkscape:connector-curvature="0" d="M161,84.3c-1.1,0-1.9,0.9-1.9,2c0,1.1,0.9,2,2,2c1.1,0,2-0.9,2-2
				C163,85.2,162.1,84.3,161,84.3C161,84.3,161,84.3,161,84.3C161,84.3,161,84.3,161,84.3L161,84.3z M167.4,84.3
				c-1.1,0-1.9,0.9-1.9,2c0,1.1,0.9,2,2,2c1.1,0,2-0.9,2-2c0,0,0,0,0,0C169.4,85.2,168.5,84.3,167.4,84.3
				C167.4,84.3,167.4,84.3,167.4,84.3C167.4,84.3,167.4,84.3,167.4,84.3L167.4,84.3z M173.8,84.3c-1.1,0-1.9,0.9-1.9,2
				c0,1.1,0.9,2,2,2c0,0,0,0,0,0c1.1,0,2-0.9,2-2C175.8,85.2,174.9,84.3,173.8,84.3C173.9,84.3,173.9,84.3,173.8,84.3
				C173.8,84.3,173.8,84.3,173.8,84.3L173.8,84.3z M180.2,84.3c-1.1,0-1.9,0.9-1.9,2c0,1.1,0.9,2,2,2c1.1,0,2-0.9,2-2
				C182.2,85.2,181.3,84.3,180.2,84.3C180.3,84.3,180.3,84.3,180.2,84.3C180.2,84.3,180.2,84.3,180.2,84.3L180.2,84.3z M186.6,84.3
				c-1.1,0-1.9,0.9-1.9,2c0,1.1,0.9,2,2,2c1.1,0,2-0.9,2-2c0,0,0,0,0,0C188.6,85.2,187.7,84.3,186.6,84.3
				C186.7,84.3,186.7,84.3,186.6,84.3C186.7,84.3,186.6,84.3,186.6,84.3L186.6,84.3z M164.2,89c-1.1,0-2,0.9-2,2c0,0,0,0,0,0
				c0,1.1,0.9,2,2,2c1.1,0,2-0.9,2-2c0,0,0,0,0,0C166.2,89.9,165.3,89,164.2,89C164.2,89,164.2,89,164.2,89z M170.6,89
				c-1.1,0-2,0.9-2,2c0,0,0,0,0,0c0,1.1,0.9,2,2,2c0,0,0,0,0,0c1.1,0,2-0.9,2-2C172.6,89.9,171.7,89,170.6,89
				C170.6,89,170.6,89,170.6,89z M177.1,89c-1.1,0-2,0.9-2,2c0,0,0,0,0,0c0,1.1,0.9,2,2,2c1.1,0,2-0.9,2-2
				C179,89.9,178.1,89,177.1,89C177.1,89,177.1,89,177.1,89z M183.5,89c-1.1,0-2,0.9-2,2c0,0,0,0,0,0c0,1.1,0.9,2,2,2
				c1.1,0,2-0.9,2-2c0,0,0,0,0,0C185.4,89.9,184.5,89,183.5,89C183.5,89,183.5,89,183.5,89z M167.3,93.9c-1.1,0-1.9,0.9-1.9,2
				c0,1.1,0.9,2,2,2c0,0,0,0,0,0c1.1,0,2-0.9,2-2C169.3,94.7,168.4,93.9,167.3,93.9C167.3,93.9,167.3,93.9,167.3,93.9
				C167.3,93.9,167.3,93.9,167.3,93.9L167.3,93.9z M173.7,93.9c-1.1,0-1.9,0.9-1.9,2c0,1.1,0.9,2,2,2c1.1,0,2-0.9,2-2
				C175.7,94.7,174.8,93.9,173.7,93.9C173.7,93.9,173.7,93.9,173.7,93.9C173.7,93.9,173.7,93.9,173.7,93.9L173.7,93.9z M180.1,93.9
				c-1.1,0-1.9,0.9-1.9,2c0,1.1,0.9,2,2,2c1.1,0,2-0.9,2-2c0,0,0,0,0,0C182.1,94.7,181.2,93.9,180.1,93.9
				C180.1,93.9,180.1,93.9,180.1,93.9C180.1,93.9,180.1,93.9,180.1,93.9L180.1,93.9z"/>
			<path id="rect959" inkscape:connector-curvature="0" class="st4" d="M102.1,20c3.2,0,5.7,2.5,5.7,5.7v8.2c0,3.2-2.5,5.7-5.7,5.7
				s-5.7-2.5-5.7-5.7v-8.2C96.4,22.5,99,20,102.1,20z"/>
			<path id="rect961" inkscape:connector-curvature="0" class="st4" d="M245.6,20c3.2,0,5.7,2.5,5.7,5.7v8.2c0,3.2-2.5,5.7-5.7,5.7
				c-3.2,0-5.7-2.5-5.7-5.7v-8.2C239.9,22.5,242.5,20,245.6,20z"/>
			<path id="rect963" inkscape:connector-curvature="0" class="st5" d="M118,10.8c-1.8,0-3.2,1.4-3.2,3.2V28v32.7v9
				c0,3.2,2.6,5.7,5.8,5.7h106.3c3.2,0,5.8-2.5,5.8-5.7v-9V28V14c0-1.8-1.4-3.2-3.2-3.2H118z"/>
			<circle id="circle984" class="st6" cx="63.6" cy="64.5" r="41.5"/>
			<path id="path898" inkscape:connector-curvature="0" class="st7" d="M60.5,35.4c-0.2,0-0.4,0-0.5,0c-1.6,0.1-2.5,0.4-3.3,0.7
				c-0.8,0.4-1.5,0.9-2,1.6c-0.5,0.7-0.9,1.6-1,3.8c0,2.2,0.2,5.8,0.5,7.7c0.2,2,0.4,2.4,1.5,3.5c1,1.1,2.8,2.9,4.1,4.2
				c1.2,1.2,1.9,1.9,2.4,2.3c0.4,0.3,0.7,0.5,0.9,0.6c0.4,0.1,0.9,0.2,1.2,0c0.3-0.1,0.5-0.3,0.9-0.6c0.5-0.4,1.2-1,2.4-2.3
				c1.2-1.2,3.1-3.1,4.1-4.2c1-1.1,1.2-1.5,1.5-3.5c0.2-2,0.5-5.5,0.5-7.7c0-2.2-0.4-3.1-1-3.8c-0.5-0.7-1.2-1.2-2-1.6
				c-0.8-0.4-1.7-0.6-3.3-0.7c-0.2,0-0.4,0-0.5,0H60.5z M40.6,54.6c-2.2,0-3.1,0.4-3.8,1c-0.7,0.5-1.2,1.2-1.6,2
				c-0.4,0.8-0.6,1.7-0.7,3.3c0,0.2,0,0.4,0,0.5v6.3c0,0.2,0,0.4,0,0.5c0.1,1.6,0.4,2.5,0.7,3.3c0.4,0.8,0.9,1.5,1.6,2
				c0.7,0.5,1.6,0.9,3.8,1c2.2,0,5.8-0.2,7.7-0.5c2-0.2,2.4-0.4,3.5-1.5c1.1-1,2.9-2.8,4.2-4.1c1.2-1.2,1.9-1.9,2.3-2.4
				c0.3-0.4,0.5-0.7,0.6-0.9c0.1-0.1,0.1-0.3,0.1-0.6c0-0.2,0-0.5-0.1-0.6c-0.1-0.3-0.3-0.5-0.6-0.9c-0.4-0.5-1-1.2-2.3-2.4
				c-1.2-1.2-3.1-3.1-4.2-4.1c-1.1-1-1.5-1.2-3.5-1.5C46.4,54.8,42.8,54.6,40.6,54.6L40.6,54.6z M86.7,54.6c-2.2,0-5.8,0.2-7.7,0.5
				c-2,0.2-2.4,0.4-3.5,1.5c-1.1,1-2.9,2.8-4.2,4.1c-1.2,1.2-1.9,1.9-2.3,2.4c-0.3,0.4-0.5,0.7-0.6,0.9c-0.1,0.4-0.2,0.9,0,1.2
				c0.1,0.3,0.3,0.5,0.6,0.9c0.4,0.5,1,1.2,2.3,2.4c1.2,1.2,3.1,3.1,4.2,4.1c1.1,1,1.5,1.2,3.5,1.5c2,0.2,5.5,0.5,7.7,0.5
				c2.2,0,3.1-0.4,3.8-1c0.7-0.5,1.2-1.2,1.6-2c0.4-0.8,0.6-1.7,0.7-3.3c0-0.2,0-0.4,0-0.5v-6.3c0-0.2,0-0.4,0-0.5
				c-0.1-1.6-0.4-2.5-0.7-3.3c-0.4-0.8-0.9-1.5-1.6-2C89.8,55,88.9,54.7,86.7,54.6L86.7,54.6z M63.7,69.2c-0.2,0-0.5,0-0.6,0.1
				c-0.3,0.1-0.5,0.3-0.9,0.6c-0.5,0.4-1.2,1-2.4,2.3c-1.2,1.2-3.1,3.1-4.1,4.2c-1,1.1-1.2,1.5-1.5,3.5c-0.2,2-0.5,5.5-0.5,7.7
				c0,2.2,0.4,3.1,1,3.8c0.5,0.7,1.2,1.2,2,1.6c0.8,0.4,1.7,0.6,3.3,0.7c0.2,0,0.4,0,0.5,0h6.3c0.2,0,0.4,0,0.5,0
				c1.6-0.1,2.5-0.4,3.3-0.7c0.8-0.4,1.5-0.9,2-1.6c0.5-0.7,0.9-1.6,1-3.8c0-2.2-0.2-5.8-0.5-7.7c-0.2-2-0.4-2.4-1.5-3.5
				c-1-1.1-2.8-2.9-4.1-4.2c-1.2-1.2-1.9-1.9-2.4-2.3c-0.4-0.3-0.7-0.5-0.9-0.6C64.1,69.3,63.9,69.2,63.7,69.2L63.7,69.2z"/>
			<circle id="path980" class="st6" cx="284.1" cy="64.5" r="41.5"/>
			<path id="path882" inkscape:connector-curvature="0" class="st7" d="M284.1,27.2c-6.6,0-11.9,5.3-11.9,11.9
				c0,6.6,5.3,11.9,11.9,11.9c6.6,0,11.9-5.3,11.9-11.9c0,0,0-0.1,0-0.1C296,32.4,290.7,27.2,284.1,27.2z"/>
			<path id="path880" inkscape:connector-curvature="0" class="st7" d="M258.6,52.6c-6.5,0.1-11.8,5.4-11.8,11.9
				c0,6.6,5.3,11.9,11.9,11.9c6.6,0,11.9-5.3,11.9-11.9c0-6.6-5.3-11.9-11.9-11.9C258.7,52.6,258.6,52.6,258.6,52.6L258.6,52.6z"/>
			<path id="path878" inkscape:connector-curvature="0" class="st7" d="M309.6,52.6c-6.5,0.1-11.8,5.4-11.8,11.9
				c0,6.6,5.3,11.9,11.9,11.9c0,0,0,0,0,0c6.6,0,11.9-5.3,11.9-11.9c0-6.6-5.3-11.9-11.9-11.9C309.7,52.6,309.7,52.6,309.6,52.6
				L309.6,52.6z"/>
			<path id="path970" inkscape:connector-curvature="0" class="st7" d="M284.1,78c-6.6,0-11.9,5.3-11.9,11.9c0,0,0,0,0,0
				c0,6.6,5.3,11.9,11.9,11.9c6.6,0,11.9-5.3,11.9-11.9c0,0,0-0.1,0-0.1C296,83.3,290.7,78,284.1,78L284.1,78z"/>
			<circle id="path913" class="st8" cx="118.9" cy="114.4" r="31.7"/>
			<circle id="circle1004" class="st9" cx="118.9" cy="114.4" r="21.1"/>
			<circle id="circle1006" class="st10" cx="118.9" cy="114.4" r="14.6"/>
			<circle id="circle1013" class="st8" cx="228.8" cy="114.4" r="31.7"/>
			<circle id="circle1015" class="st9" cx="228.8" cy="114.4" r="21.1"/>
			<circle id="circle1017" class="st10" cx="228.8" cy="114.4" r="14.6"/>
			<path id="rect843" inkscape:connector-curvature="0" class="st11" d="M251.8,57.6v0.8v13h13.9V57.6H251.8z M253.5,59.3h10.5v10.5
				h-10.5V59.3z"/>
			<path id="path845" inkscape:connector-curvature="0" class="st12" d="M284.1,30l-8.6,14.9l17.2,0l-0.7-1.3L284.1,30z M284.1,33.4
				l5.7,9.8l-11.3,0L284.1,33.4z"/>
			<path id="path848" inkscape:connector-curvature="0" class="st13" d="M309.8,56c-4.7,0-8.5,3.8-8.5,8.5c0,4.7,3.8,8.5,8.5,8.5
				c4.7,0,8.5-3.8,8.5-8.5C318.3,59.8,314.5,56,309.8,56z M309.8,57.7c3.8,0,6.8,3.1,6.8,6.8c0,3.8-3.1,6.8-6.8,6.8
				c-3.8,0-6.8-3.1-6.8-6.8C302.9,60.7,306,57.7,309.8,57.7z"/>
			<path id="path850" inkscape:connector-curvature="0" class="st14" d="M278.1,82.7l-1.2,1.2c2,2,4,4,6,6c-2,2-4,4-6,6l1.2,1.2
				c2-2,4-4,6-6c2,2,4,4,6,6l1.2-1.2c-2-2-4-4-6-6c2-2,4-4,6-6l-1.2-1.2c-2,2-4,4-6,6C282.1,86.7,280.1,84.7,278.1,82.7z"/>
		</g>
	</g>
</g>
</svg>
