<?xml version="1.0" encoding="utf-8"?>
<!-- Generator: Adobe Illustrator 23.0.6, SVG Export Plug-In . SVG Version: 6.00 Build 0)  -->
<svg version="1.1"
	 id="svg8" inkscape:version="0.92.4 (5da689c313, 2019-01-14)" sodipodi:docname="xbox.svg" xmlns:cc="http://creativecommons.org/ns#" xmlns:dc="http://purl.org/dc/elements/1.1/" xmlns:inkscape="http://www.inkscape.org/namespaces/inkscape" xmlns:rdf="http://www.w3.org/1999/02/22-rdf-syntax-ns#" xmlns:sodipodi="http://sodipodi.sourceforge.net/DTD/sodipodi-0.dtd" xmlns:svg="http://www.w3.org/2000/svg"
	 xmlns="http://www.w3.org/2000/svg" xmlns:xlink="http://www.w3.org/1999/xlink" x="0px" y="0px" viewBox="0 0 527.5 366.1"
	 style="enable-background:new 0 0 527.5 366.1;" xml:space="preserve">
<style type="text/css">
	.st0{fill:#05060A;}
	.st1{fill:#222629;}
	.st2{fill:#1D2122;}
	.st3{fill:#2F3336;}
	.st4{fill:#101010;}
	.st5{fill:#22272A;}
	.st6{fill:#1C1D21;}
	.st7{opacity:0.4165;fill:#373F42;enable-background:new    ;}
	.st8{fill:#FFFFFF;}
	.st9{fill:#009CD3;}
	.st10{fill:#DDB42C;}
	.st11{fill:#CF3930;}
	.st12{fill:#88BF57;}
	.st13{fill:#C0C0C0;}
</style>
<defs>
	
	
		<inkscape:path-effect  apply_no_weight="true" apply_with_weight="true" effect="bspline" helper_size="0" id="path-effect852" is_visible="true" only_selected="false" steps="2" weight="33.333333">
		</inkscape:path-effect>
	
		<inkscape:path-effect  apply_no_weight="true" apply_with_weight="true" effect="bspline" helper_size="0" id="path-effect848" is_visible="true" only_selected="false" steps="2" weight="33.333333">
		</inkscape:path-effect>
	
		<inkscape:path-effect  apply_no_weight="true" apply_with_weight="true" effect="bspline" helper_size="0" id="path-effect844" is_visible="true" only_selected="false" steps="2" weight="33.333333">
		</inkscape:path-effect>
	
		<inkscape:path-effect  apply_no_weight="true" apply_with_weight="true" effect="bspline" helper_size="0" id="path-effect948" is_visible="true" lpeversion="1" only_selected="false" steps="2" weight="33.333333">
		</inkscape:path-effect>
	
		<inkscape:path-effect  apply_no_weight="true" apply_with_weight="true" effect="bspline" helper_size="0" id="path-effect944" is_visible="true" lpeversion="1" only_selected="false" steps="2" weight="33.333333">
		</inkscape:path-effect>
	
		<inkscape:path-effect  apply_no_weight="true" apply_with_weight="true" effect="bspline" helper_size="0" id="path-effect930" is_visible="true" lpeversion="1" only_selected="false" steps="2" weight="33.333333">
		</inkscape:path-effect>
	
		<inkscape:path-effect  apply_no_weight="true" apply_with_weight="true" effect="bspline" helper_size="0" id="path-effect926" is_visible="true" lpeversion="1" only_selected="false" steps="2" weight="33.333333">
		</inkscape:path-effect>
	
		<inkscape:path-effect  apply_no_weight="true" apply_with_weight="true" effect="bspline" helper_size="0" id="path-effect855" is_visible="true" lpeversion="1" only_selected="false" steps="2" weight="33.333333">
		</inkscape:path-effect>
	
		<inkscape:path-effect  apply_no_weight="true" apply_with_weight="true" effect="bspline" helper_size="0" id="path-effect851" is_visible="true" lpeversion="1" only_selected="false" steps="2" weight="33.333333">
		</inkscape:path-effect>
</defs>
<sodipodi:namedview  bordercolor="#666666" borderopacity="1.0" id="base" inkscape:current-layer="layer1" inkscape:cx="-2968.2059" inkscape:cy="262.75947" inkscape:document-rotation="0" inkscape:document-units="mm" inkscape:pageopacity="0.0" inkscape:pageshadow="2" inkscape:snap-global="false" inkscape:snap-smooth-nodes="true" inkscape:window-height="1017" inkscape:window-maximized="1" inkscape:window-width="1920" inkscape:window-x="-8" inkscape:window-y="-8" inkscape:zoom="0.08838835" pagecolor="#ffffff" showgrid="false">
	</sodipodi:namedview>
<g id="layer1" inkscape:groupmode="layer" inkscape:label="Ebene 1">
	<g id="g968" transform="matrix(0.3297792,0,0,0.3297792,103.66327,-1.2828916)">
		<path id="path942" inkscape:connector-curvature="0" class="st0" d="M782.4,3.9c-11.2,0-20.7,1.6-29.9,5.4
			c-11.3,4.7-22,13-30.3,18.1c-8.3,5.1-14.3,7.2-23.9,8s-23,0.2-51.1,0c-18.4-0.2-44.2-0.2-72.2-0.2c-3.4,0-7.2,0-12.2,0h-33.5
			h-91.4h-33.5c-5,0-8.8,0-12.2,0c-28,0-53.8,0.1-72.2,0.2c-28.1,0.3-41.4,0.8-51.1,0c-9.6-0.8-15.6-2.9-23.9-8
			c-8.3-5.1-19-13.4-30.3-18.1c-9.2-3.9-18.8-5.4-29.9-5.4c-2.6,0-5.2,0.1-8,0.2c-14.7,0.7-32.3,3.5-52.5,7.3
			c-20.1,3.8-42.8,8.7-70.2,19.1C26.7,40.8-5.3,56.7-26.5,68.2s-31.3,18.6-39.4,39c-2.7,6.7-5.1,14.9-7.7,24.9
			c8-5.7,17.4-11.5,28.8-17.8c24.3-13.3,57.7-28.5,91.8-40.7s68.8-21.4,93.5-24.7c7.7-1,14.5-1.5,20.6-1.5c13.5,0,24,2,35.4,4.7
			C213.1,56,231.4,61,246.7,63c15.3,2,27.6,0.9,76,0.4c28.7-0.3,69.5-0.4,107.3-0.5c0.3,0,0.5-0.1,0.6-0.1c0.3,0,0.3,0,42.6,0
			c3.4,0,8.4,0,12.3,0c3.9,0,8.9,0,12.3,0c42.2,0,42.2,0,42.6,0c0.1,0,0.3,0,0.6,0.1c37.7,0.1,78.6,0.2,107.3,0.5
			c48.4,0.5,60.7,1.6,76-0.4c15.3-2,33.6-7.1,50.1-10.9c16.5-3.8,31.3-6.5,56-3.1c24.7,3.3,59.4,12.5,93.5,24.7
			c34.1,12.2,67.6,27.4,91.8,40.7c9.3,5.1,17.3,9.9,24.3,14.6c-2.2-8.5-4.5-15.7-6.9-21.8c-8.1-20.4-18.3-27.5-39.4-39
			c-21.1-11.5-53.2-27.4-80.5-37.8S863,15.2,842.8,11.4c-20.1-3.8-37.7-6.5-52.5-7.3C787.6,4,784.9,3.9,782.4,3.9L782.4,3.9z"/>
		<path id="path849" inkscape:connector-curvature="0" class="st1" d="M161.3,44.3c-6.1,0-12.9,0.5-20.6,1.5
			c-24.7,3.3-59.4,12.5-93.5,24.7C13,82.7-20.5,97.9-44.7,111.2c-24.3,13.3-39.3,24.7-51.7,36.9c-12.4,12.3-22,25.5-39.5,65.6
			c-17.4,40.1-42.6,107.3-76.7,204.8s-77.1,225.5-93.5,332.3c-16.4,106.8-6.3,192.5,14.4,245.5s51.5,73.2,75.4,87.3
			c23.9,14.1,40.6,21.9,50.6,26.1c10,4.3,13.2,5,18.7,3.1c5.5-1.9,13.4-6.3,26.9-15.4c13.5-9.1,32.8-22.9,51.6-42.4
			c18.8-19.5,37.3-44.7,60.2-75.2c22.9-30.5,50.3-66.4,73.7-96.2c23.5-29.9,43-53.8,72.1-66.6c29.1-12.8,67.8-14.6,132.1-15.4
			c63-0.9,150.3-0.9,215.8-0.9c65.5,0,152.8,0,215.8,0.9c64.3,0.9,102.9,2.6,132.1,15.4c29.1,12.8,48.7,36.7,72.1,66.6
			c23.5,29.9,50.8,65.7,73.7,96.2c22.9,30.5,41.4,55.7,60.2,75.2c18.8,19.5,38.1,33.3,51.6,42.4c13.5,9.1,21.4,13.6,26.9,15.4
			c5.5,1.9,8.8,1.2,18.7-3.1c10-4.3,26.7-12.1,50.6-26.1s54.8-34.2,75.4-87.3c20.7-53,30.8-138.7,14.4-245.5
			c-16.4-106.8-59.4-234.8-93.5-332.3s-59.3-164.7-76.7-204.8c-17.4-40.1-27.1-53.3-39.5-65.6c-12.4-12.3-27.4-23.7-51.7-36.9
			c-24.3-13.3-57.8-28.5-91.8-40.7c-34.1-12.2-68.8-21.4-93.5-24.7c-24.7-3.3-39.5-0.7-56,3.1c-16.5,3.8-34.8,8.9-50.1,10.9
			s-27.6,0.9-76,0.4c-28.7-0.3-69.5-0.4-107.3-0.5c-0.3,0-0.5-0.1-0.6-0.1c-0.3,0-0.3,0-42.6,0c-3.4,0-8.4,0-12.3,0
			c-3.9,0-8.9,0-12.3,0c-42.2,0-42.2,0-42.6,0c-0.1,0-0.3,0-0.6,0.1c-37.7,0.1-78.6,0.2-107.3,0.5c-48.4,0.5-60.7,1.6-76-0.4
			s-33.6-7.1-50.1-10.9C185.3,46.3,174.8,44.2,161.3,44.3L161.3,44.3z"/>
		<circle id="path920" class="st2" cx="269.9" cy="568.8" r="136.9"/>
		<path id="path1051" inkscape:connector-curvature="0" d="M899.7,362.2c-30.7,0-55.5,24.9-55.5,55.5c0,0,0,0,0,0
			c0,30.7,24.9,55.5,55.5,55.5c0,0,0,0,0,0c30.7,0,55.5-24.9,55.5-55.5c0,0,0,0,0,0C955.3,387.1,930.4,362.2,899.7,362.2
			C899.7,362.2,899.7,362.2,899.7,362.2z"/>
		<path id="path1049" inkscape:connector-curvature="0" d="M1018,251c-30.7,0-55.5,24.9-55.5,55.5c0,30.7,24.9,55.5,55.5,55.5
			c30.7,0,55.5-24.9,55.5-55.5c0,0,0,0,0,0C1073.5,275.9,1048.7,251,1018,251C1018,251,1018,251,1018,251z"/>
		<path id="path1047" inkscape:connector-curvature="0" d="M788.6,251c-30.7,0-55.5,24.9-55.5,55.5c0,30.7,24.9,55.5,55.5,55.5
			c30.7,0,55.5-24.9,55.5-55.5c0,0,0,0,0,0C844.1,275.9,819.2,251,788.6,251C788.6,251,788.6,251,788.6,251z"/>
		<path id="path858" inkscape:connector-curvature="0" d="M899.7,139.8c-30.7,0-55.5,24.9-55.5,55.5c0,30.7,24.9,55.5,55.5,55.5
			c0,0,0,0,0,0c30.7,0,55.5-24.9,55.5-55.5c0,0,0,0,0,0C955.3,164.7,930.4,139.8,899.7,139.8z"/>
		<path id="path866" inkscape:connector-curvature="0" class="st3" d="M366.8,270.1c-19.5,0.1-35.2,15.9-35.2,35.3
			c0,19.5,15.8,35.3,35.3,35.3c0,0,0,0,0,0c19.5,0,35.3-15.8,35.3-35.3c0,0,0,0,0,0C402.2,285.9,386.4,270.1,366.8,270.1
			C366.9,270.1,366.9,270.1,366.8,270.1C366.8,270.1,366.8,270.1,366.8,270.1z"/>
		<path id="path868" inkscape:connector-curvature="0" class="st3" d="M603.9,270.1c-19.5,0.1-35.2,15.9-35.2,35.3
			c0,19.5,15.8,35.3,35.3,35.3c0,0,0,0,0,0c19.5,0,35.3-15.8,35.3-35.3c0,0,0,0,0,0C639.3,285.9,623.5,270.1,603.9,270.1
			C604,270.1,604,270.1,603.9,270.1C603.9,270.1,603.9,270.1,603.9,270.1z"/>
		<path id="path875" inkscape:connector-curvature="0" class="st4" d="M269.7,443.6c-20.5,0-37,4.7-37,10.3v66.9
			c0,5.9-4.7,10.6-10.6,10.6h-66.9c-5.7,0-10.3,16.7-10.3,37.3c0,0,0,0,0,0c0,20.6,4.6,37.3,10.3,37.3c0,0,0,0,0,0c0,0,0,0,0.1,0
			H222c5.9,0,10.6,4.7,10.6,10.6v66.9c0,5.7,16.7,10.3,37.3,10.3c0,0,0,0,0,0c20.6,0,37.3-4.6,37.3-10.3c0,0,0,0,0,0c0,0,0,0,0-0.1
			v-66.8c0-5.9,4.7-10.6,10.6-10.6h66.8c0,0,0,0,0.1,0c5.7,0,10.3-16.7,10.3-37.3c0,0,0,0,0,0c0-0.1,0-0.2,0-0.2
			c0-20.5-4.7-37-10.3-37h-66.9c-5.9,0-10.6-4.7-10.6-10.6V454c0,0,0,0,0-0.1c0-5.7-16.7-10.3-37.3-10.3c0,0,0,0,0,0
			C269.8,443.6,269.8,443.6,269.7,443.6L269.7,443.6z"/>
		<circle id="circle912" class="st3" cx="71.2" cy="307.2" r="118.3"/>
		<circle id="circle914" cx="71.2" cy="307.2" r="101.3"/>
		<circle id="circle916" class="st5" cx="71.2" cy="307.2" r="91.7"/>
		<circle id="circle918" class="st6" cx="71.2" cy="307.2" r="65.1"/>
		<path id="path922" inkscape:connector-curvature="0" class="st7" d="M161.3,44.3c-6.1,0-12.9,0.5-20.6,1.5
			c-24.7,3.3-59.4,12.5-93.5,24.7C13,82.7-20.5,97.9-44.7,111.2c-24.3,13.3-39.3,24.7-51.7,36.9c-5,4.9-9.5,10.1-14.3,17
			c13.6-8.7,30.5-19.1,49.2-29.1c30.8-16.4,66.3-31.5,94.1-43s48.1-19.2,69.6-22.8c21.5-3.6,44.1-3,57.8-2.6
			c13.7,0.4,18.4,0.5,26.1,6.2c7.7,5.7,18.2,16.8,35.4,34.5s40.8,42,59,60.9c18.1,18.9,30.8,32.6,43.7,41.2
			c34.6,16.8,68.2,15.4,92.3,15.4c17.7,0,43.2,0,70.1-0.1c26.8,0.2,52.4,0.1,70.1,0.1c28.4,0.2,70.6-1.2,92.3-15.4
			c12.8-8.6,25.5-22.2,43.7-41.2s41.9-43.2,59-60.9s27.7-28.9,35.4-34.5c7.7-5.7,12.4-5.8,14.8-5.9c2.4-0.1,2.4-0.1,13.7-0.4
			c11.3-0.3,33.9-0.9,55.4,2.7c21.5,3.6,41.7,11.4,69.6,22.8c27.9,11.5,63.3,26.6,94.1,43c17,9.1,32.6,18.5,45.5,26.7
			c-4.2-5.8-8.3-10.3-12.7-14.7c-12.4-12.3-27.4-23.7-51.7-36.9c-24.3-13.3-57.8-28.5-91.8-40.7c-34.1-12.2-68.8-21.4-93.5-24.7
			c-24.7-3.3-39.5-0.7-56,3.1c-16.5,3.8-34.8,8.9-50.1,10.9s-27.6,0.9-76,0.4c-28.7-0.3-69.5-0.4-107.3-0.5c-0.3,0-0.5-0.1-0.6-0.1
			c-0.3,0-0.3,0-42.6,0c-3.4,0-8.4,0-12.3,0c-3.9,0-8.9,0-12.3,0c-42.2,0-42.2,0-42.6,0c-0.1,0-0.3,0-0.6,0.1
			c-37.7,0.1-78.6,0.2-107.3,0.5c-48.4,0.5-60.7,1.6-76-0.4s-33.6-7.1-50.1-10.9C185.3,46.3,174.8,44.2,161.3,44.3L161.3,44.3z"/>
		<path id="path881" inkscape:connector-curvature="0" class="st8" d="M346.4,288.4v2.8v18.6h11.3v-5.7h-5.6V294h16v5.4h5.7v-11
			H346.4z M359.9,301.1v2.8v18.6h27.4v-21.4H359.9z M365.6,306.8h16v10.1h-16V306.8z"/>
		<circle id="circle1020" class="st3" cx="697.3" cy="551.6" r="118.3"/>
		<circle id="circle1022" cx="697.3" cy="551.6" r="101.3"/>
		<circle id="circle1024" class="st5" cx="697.3" cy="551.6" r="91.7"/>
		<circle id="circle1026" class="st6" cx="697.3" cy="551.6" r="65.1"/>
		<path id="path1032" inkscape:connector-curvature="0" class="st9" d="M821.3,337.8L797,304.2l20.4-28.9h-17.7l-11.5,17l-11.5-17
			h-17l19.7,28.9l-23.6,33.6h17.6l14.8-21.3l14.8,21.3L821.3,337.8z"/>
		<path id="path1034" inkscape:connector-curvature="0" class="st10" d="M869.6,164.1l23,34.5v28h14.2v-28l23-34.5h-17.1l-13,20
			l-13-20H869.6z"/>
		<path id="path1036" inkscape:connector-curvature="0" class="st11" d="M999.7,275.3v62.5h23.7c12.9,0,20.4-7.1,20.4-17.4
			c0-10.1-5.5-14.4-13.3-15.8c5.3-2.7,7.8-7.6,7.8-13.4c0-11.9-8.5-15.9-19.2-15.9H999.7z M1013.9,299.8v-13.5h1.1
			c6.2,0,9.5,1.9,9.5,6.4c0,5.2-3.3,7.1-9.5,7.1H1013.9z M1013.9,326.8V312h4.5c6.7,0,10.5,2,10.5,7.8c0,4.9-3.7,7-10.5,7H1013.9z"
			/>
		<path id="path1038" inkscape:connector-curvature="0" class="st12" d="M906.3,386.5h-13.2L867.9,449h15.3l4.6-12.5h23.8l4.6,12.5
			h15.3L906.3,386.5z M906.8,424h-14.1l7-18.2h0.2L906.8,424z"/>
		<path id="path842" inkscape:connector-curvature="0" class="st8" d="M586.9,292.1c-1.6,0-2.9,1.2-2.9,2.8c0,1.6,1.2,2.9,2.8,2.9
			c0,0,0.1,0,0.1,0H621c1.6,0,2.9-1.2,2.9-2.8c0-1.6-1.2-2.9-2.8-2.9c0,0-0.1,0-0.1,0H586.9z M586.9,302.6c-1.6,0-2.9,1.2-2.9,2.8
			c0,1.6,1.2,2.9,2.8,2.9c0,0,0.1,0,0.1,0H621c1.6,0,2.9-1.2,2.9-2.8c0-1.6-1.2-2.9-2.8-2.9c0,0-0.1,0-0.1,0H586.9z M586.9,313.2
			c-1.6,0-2.9,1.2-2.9,2.8c0,1.6,1.2,2.9,2.8,2.9c0,0,0.1,0,0.1,0H621c1.6,0,2.9-1.2,2.9-2.8c0-1.6-1.2-2.9-2.8-2.9c0,0-0.1,0-0.1,0
			H586.9z"/>
		<path id="path884" inkscape:connector-curvature="0" class="st13" d="M484.6,81.1c-35.1,0-63.6,28.5-63.6,63.6
			s28.5,63.6,63.6,63.6s63.6-28.5,63.6-63.6S519.7,81.1,484.6,81.1z M484.6,86.8c32,0,58,25.9,58,58s-25.9,58-58,58s-58-25.9-58-58
			S452.5,86.8,484.6,86.8z"/>
	</g>
</g>
</svg>
